999
dxfrw 0.6.3
  0
SECTION
  2
HEADER
  9
$ACADVER
  1
AC1021
  9
$DWGCODEPAGE
  3
ANSI_1252
  9
$INSBASE
 10
0
 20
0
 30
0
  9
$EXTMIN
 10
-77.94735281528973
 20
-146.3312261828527
 30
0
  9
$EXTMAX
 10
403.8086080223861
 20
260.8850175858677
 30
0
  9
$LIMMIN
 10
0
 20
0
  9
$LIMMAX
 10
420
 20
297
  9
$ORTHOMODE
 70
    0
  9
$REGENMODE
 70
    1
  9
$FILLMODE
 70
    1
  9
$QTEXTMODE
 70
    0
  9
$MIRRTEXT
 70
    0
  9
$LTSCALE
 40
1
  9
$ATTMODE
 70
    0
  9
$TEXTSIZE
 40
2.5
  9
$TRACEWID
 40
15.68
  9
$TEXTSTYLE
  7
STANDARD
  9
$CLAYER
  8
cotation
  9
$CELTYPE
  6
BYLAYER
  9
$CECOLOR
 62
  256
  9
$CELTSCALE
 40
1
  9
$DISPSILH
 70
    0
  9
$DIMSCALE
 40
2.5
  9
$DIMASZ
 40
2.5
  9
$DIMEXO
 40
0.625
  9
$DIMDLI
 40
3.75
  9
$DIMRND
 40
0
  9
$DIMDLE
 40
0
  9
$DIMEXE
 40
1.25
  9
$DIMTP
 40
0
  9
$DIMTM
 40
0
  9
$DIMTXT
 40
2.5
  9
$DIMCEN
 40
2.5
  9
$DIMTSZ
 40
0
  9
$DIMTOL
 70
    0
  9
$DIMLIM
 70
    0
  9
$DIMTIH
 70
    0
  9
$DIMTOH
 70
    0
  9
$DIMSE1
 70
    0
  9
$DIMSE2
 70
    0
  9
$DIMTAD
 70
    1
  9
$DIMZIN
 70
    8
  9
$DIMBLK
  1

  9
$DIMASO
 70
    1
  9
$DIMSHO
 70
    1
  9
$DIMPOST
  1

  9
$DIMAPOST
  1

  9
$DIMALT
 70
    0
  9
$DIMALTD
 70
    3
  9
$DIMALTF
 40
0.03937
  9
$DIMLFAC
 40
1
  9
$DIMTOFL
 70
    1
  9
$DIMTVP
 40
0
  9
$DIMTIX
 70
    0
  9
$DIMSOXD
 70
    0
  9
$DIMSAH
 70
    0
  9
$DIMBLK1
  1

  9
$DIMBLK2
  1

  9
$DIMSTYLE
  2
STANDARD
  9
$DIMCLRD
 70
    0
  9
$DIMCLRE
 70
    0
  9
$DIMCLRT
 70
    0
  9
$DIMTFAC
 40
1
  9
$DIMGAP
 40
0.625
  9
$DIMJUST
 70
    0
  9
$DIMSD1
 70
    0
  9
$DIMSD2
 70
    0
  9
$DIMTOLJ
 70
    0
  9
$DIMTZIN
 70
    8
  9
$DIMALTZ
 70
    0
  9
$DIMALTTZ
 70
    0
  9
$DIMUPT
 70
    0
  9
$DIMDEC
 70
    2
  9
$DIMTDEC
 70
    2
  9
$DIMALTU
 70
    2
  9
$DIMALTTD
 70
    3
  9
$DIMTXSTY
  7
standard
  9
$DIMAUNIT
 70
    0
  9
$DIMADEC
 70
    0
  9
$DIMALTRND
 40
0
  9
$DIMAZIN
 70
    0
  9
$DIMDSEP
 70
   44
  9
$DIMATFIT
 70
    3
  9
$DIMFRAC
 70
    0
  9
$DIMLDRBLK
  1
STANDARD
  9
$DIMLUNIT
 70
    2
  9
$DIMLWD
 70
   -2
  9
$DIMLWE
 70
   -2
  9
$DIMTMOVE
 70
    0
  9
$DIMFXL
 40
1
  9
$DIMFXLON
 70
    0
  9
$DIMJOGANG
 40
0.7854
  9
$DIMTFILL
 70
    0
  9
$DIMTFILLCLR
 70
    0
  9
$DIMARCSYM
 70
    0
  9
$DIMLTYPE
  6

  9
$DIMLTEX1
  6

  9
$DIMLTEX2
  6

  9
$LUNITS
 70
    2
  9
$LUPREC
 70
    0
  9
$SKETCHINC
 40
1
  9
$FILLETRAD
 40
0
  9
$AUNITS
 70
    0
  9
$AUPREC
 70
    2
  9
$MENU
  1
.
  9
$ELEVATION
 40
0
  9
$PELEVATION
 40
0
  9
$THICKNESS
 40
0
  9
$LIMCHECK
 70
    0
  9
$CHAMFERA
 40
0
  9
$CHAMFERB
 40
0
  9
$CHAMFERC
 40
0
  9
$CHAMFERD
 40
0
  9
$SKPOLY
 70
    0
  9
$USRTIMER
 70
    1
  9
$ANGBASE
 50
0
  9
$ANGDIR
 70
    0
  9
$PDMODE
 70
   34
  9
$PDSIZE
 40
0
  9
$PLINEWID
 40
0
  9
$SPLFRAME
 70
    0
  9
$SPLINETYPE
 70
    2
  9
$SPLINESEGS
 70
    8
  9
$HANDSEED
  5
20000
  9
$SURFTAB1
 70
    6
  9
$SURFTAB2
 70
    6
  9
$SURFTYPE
 70
    6
  9
$SURFU
 70
    6
  9
$SURFV
 70
    6
  9
$UCSBASE
  2

  9
$UCSNAME
  2

  9
$UCSORG
 10
0
 20
0
 30
0
  9
$UCSXDIR
 10
1
 20
0
 30
0
  9
$UCSYDIR
 10
0
 20
1
 30
0
  9
$UCSORTHOREF
  2

  9
$UCSORTHOVIEW
 70
    0
  9
$UCSORGTOP
 10
0
 20
0
 30
0
  9
$UCSORGBOTTOM
 10
0
 20
0
 30
0
  9
$UCSORGLEFT
 10
0
 20
0
 30
0
  9
$UCSORGRIGHT
 10
0
 20
0
 30
0
  9
$UCSORGFRONT
 10
0
 20
0
 30
0
  9
$UCSORGBACK
 10
0
 20
0
 30
0
  9
$PUCSBASE
  2

  9
$PUCSNAME
  2

  9
$PUCSORG
 10
0
 20
0
 30
0
  9
$PUCSXDIR
 10
1
 20
0
 30
0
  9
$PUCSYDIR
 10
0
 20
1
 30
0
  9
$PUCSORTHOREF
  2

  9
$PUCSORTHOVIEW
 70
    0
  9
$PUCSORGTOP
 10
0
 20
0
 30
0
  9
$PUCSORGBOTTOM
 10
0
 20
0
 30
0
  9
$PUCSORGLEFT
 10
0
 20
0
 30
0
  9
$PUCSORGRIGHT
 10
0
 20
0
 30
0
  9
$PUCSORGFRONT
 10
0
 20
0
 30
0
  9
$PUCSORGBACK
 10
0
 20
0
 30
0
  9
$USERI1
 70
    0
  9
$USERI2
 70
    0
  9
$USERI3
 70
    0
  9
$USERI4
 70
    0
  9
$USERI5
 70
    0
  9
$USERR1
 40
0
  9
$USERR2
 40
0
  9
$USERR3
 40
0
  9
$USERR4
 40
0
  9
$USERR5
 40
0
  9
$WORLDVIEW
 70
    1
  9
$SHADEDGE
 70
    3
  9
$SHADEDIF
 70
   70
  9
$TILEMODE
 70
    1
  9
$MAXACTVP
 70
   64
  9
$PINSBASE
 10
74.47995151741603
 20
78.97887273181313
 30
0
  9
$PLIMCHECK
 70
    0
  9
$PEXTMIN
 10
0
 20
0
 30
0
  9
$PEXTMAX
 10
0
 20
0
 30
0
  9
$GRIDMODE
 70
    0
  9
$SNAPSTYLE
 70
    0
  9
$GRIDUNIT
 10
0
 20
0
  9
$PLIMMIN
 10
0
 20
0
  9
$PLIMMAX
 10
297
 20
210
  9
$UNITMODE
 70
    0
  9
$VISRETAIN
 70
    1
  9
$PLINEGEN
 70
    0
  9
$PSLTSCALE
 70
    1
  9
$TREEDEPTH
 70
 3020
  9
$CMLSTYLE
  2
Standard
  9
$CMLJUST
 70
    0
  9
$CMLSCALE
 40
20
  9
$PROXYGRAPHICS
 70
    1
  9
$MEASUREMENT
 70
    1
  9
$CELWEIGHT
370
   -1
  9
$ENDCAPS
280
    0
  9
$JOINSTYLE
280
    0
  9
$LWDISPLAY
290
    0
  9
$INSUNITS
 70
    4
  9
$HYPERLINKBASE
  1

  9
$STYLESHEET
  1

  9
$XEDIT
290
    1
  9
$CEPSNTYPE
380
    0
  9
$PSTYLEMODE
290
    1
  9
$EXTNAMES
290
    1
  9
$PSVPSCALE
 40
0.4543038474992845
  9
$OLESTARTUP
290
    0
  9
$SORTENTS
280
  127
  9
$INDEXCTL
280
    0
  9
$HIDETEXT
280
    1
  9
$XCLIPFRAME
290
    0
  9
$HALOGAP
280
    0
  9
$OBSCOLOR
 70
  257
  9
$OBSLTYPE
280
    0
  9
$INTERSECTIONDISPLAY
280
    0
  9
$INTERSECTIONCOLOR
 70
  257
  9
$DIMASSOC
280
    1
  9
$PROJECTNAME
  1

  9
$CAMERADISPLAY
290
    0
  9
$LENSLENGTH
 40
50
  9
$CAMERAHEIGHT
 40
0
  9
$STEPSPERSEC
 40
2
  9
$STEPSIZE
 40
50
  9
$3DDWFPREC
 40
2
  9
$PSOLWIDTH
 40
5
  9
$PSOLHEIGHT
 40
80
  9
$LOFTANG1
 40
1.570796326794897
  9
$LOFTANG2
 40
1.570796326794897
  9
$LOFTMAG1
 40
0
  9
$LOFTMAG2
 40
0
  9
$LOFTPARAM
 70
    7
  9
$LOFTNORMALS
280
    1
  9
$LATITUDE
 40
1
  9
$LONGITUDE
 40
1
  9
$NORTHDIRECTION
 40
0
  9
$TIMEZONE
 70
-8000
  9
$LIGHTGLYPHDISPLAY
280
    1
  9
$TILEMODELIGHTSYNCH
280
    1
  9
$SOLIDHIST
280
    1
  9
$SHOWHIST
280
    1
  9
$DWFFRAME
280
    2
  9
$DGNFRAME
280
    0
  9
$REALWORLDSCALE
290
    1
  9
$INTERFERECOLOR
 62
    1
  9
$CSHADOW
280
    0
  9
$SHADOWPLANELOCATION
 40
0
  0
ENDSEC
  0
SECTION
  2
CLASSES
  0
ENDSEC
  0
SECTION
  2
TABLES
  0
TABLE
  2
VPORT
  5
8
330
0
100
AcDbSymbolTable
 70
    1
  0
VPORT
  5
31
330
2
100
AcDbSymbolTableRecord
100
AcDbViewportTableRecord
  2
*ACTIVE
 70
    0
 10
0
 20
0
 11
1
 21
1
 12
268.0763637408707
 22
152.4260912967045
 13
0
 23
0
 14
10
 24
10
 15
10
 25
10
 16
0
 26
0
 36
1
 17
0
 27
0
 37
0
 40
410.3407156177949
 41
1.590801886792453
 42
50
 43
0
 44
0
 50
0
 51
0
 71
    0
 72
  100
 73
    1
 74
    3
 75
    0
 76
    0
 77
    0
 78
    0
281
    0
 65
    1
110
0
120
0
130
0
111
1
121
0
131
0
112
0
122
1
132
0
 79
    0
146
0
348
10020
 60
    7
 61
    5
292
1
282
    1
141
0
142
0
 63
  250
421
3358443
  0
ENDTAB
  0
TABLE
  2
LTYPE
  5
5
330
0
100
AcDbSymbolTable
 70
    4
  0
LTYPE
  5
14
330
5
100
AcDbSymbolTableRecord
100
AcDbLinetypeTableRecord
  2
ByBlock
 70
    0
  3

 72
   65
 73
    0
 40
0
  0
LTYPE
  5
15
330
5
100
AcDbSymbolTableRecord
100
AcDbLinetypeTableRecord
  2
ByLayer
 70
    0
  3

 72
   65
 73
    0
 40
0
  0
LTYPE
  5
16
330
5
100
AcDbSymbolTableRecord
100
AcDbLinetypeTableRecord
  2
Continuous
 70
    0
  3
Solid line
 72
   65
 73
    0
 40
0
  0
LTYPE
  5
32
330
5
100
AcDbSymbolTableRecord
100
AcDbLinetypeTableRecord
  2
DOT
 70
    0
  3
Dot . . . . . . . . . . . . . . . . . . . . . .
 72
   65
 73
    2
 40
6.35
 49
0
 74
    0
 49
-6.35
 74
    0
  0
LTYPE
  5
33
330
5
100
AcDbSymbolTableRecord
100
AcDbLinetypeTableRecord
  2
DOTTINY
 70
    0
  3
Dot (.15x) .....................................
 72
   65
 73
    2
 40
0.9525
 49
0
 74
    0
 49
-0.9525
 74
    0
  0
LTYPE
  5
34
330
5
100
AcDbSymbolTableRecord
100
AcDbLinetypeTableRecord
  2
DOT2
 70
    0
  3
Dot (.5x) .....................................
 72
   65
 73
    2
 40
3.175
 49
0
 74
    0
 49
-3.175
 74
    0
  0
LTYPE
  5
35
330
5
100
AcDbSymbolTableRecord
100
AcDbLinetypeTableRecord
  2
DOTX2
 70
    0
  3
Dot (2x) .  .  .  .  .  .  .  .  .  .  .  .  .
 72
   65
 73
    2
 40
12.7
 49
0
 74
    0
 49
-12.7
 74
    0
  0
LTYPE
  5
36
330
5
100
AcDbSymbolTableRecord
100
AcDbLinetypeTableRecord
  2
DASHED
 70
    0
  3
Dashed _ _ _ _ _ _ _ _ _ _ _ _ _ _ _ _ _
 72
   65
 73
    2
 40
19.05
 49
12.7
 74
    0
 49
-6.35
 74
    0
  0
LTYPE
  5
37
330
5
100
AcDbSymbolTableRecord
100
AcDbLinetypeTableRecord
  2
DASHEDTINY
 70
    0
  3
Dashed (.15x) _ _ _ _ _ _ _ _ _ _ _ _ _ _ _ _ _
 72
   65
 73
    2
 40
2.8575
 49
1.905
 74
    0
 49
-0.9525
 74
    0
  0
LTYPE
  5
38
330
5
100
AcDbSymbolTableRecord
100
AcDbLinetypeTableRecord
  2
DASHED2
 70
    0
  3
Dashed (.5x) _ _ _ _ _ _ _ _ _ _ _ _ _ _ _ _ _
 72
   65
 73
    2
 40
9.524999999999999
 49
6.35
 74
    0
 49
-3.175
 74
    0
  0
LTYPE
  5
39
330
5
100
AcDbSymbolTableRecord
100
AcDbLinetypeTableRecord
  2
DASHEDX2
 70
    0
  3
Dashed (2x) ____  ____  ____  ____  ____  ___
 72
   65
 73
    2
 40
38.09999999999999
 49
25.4
 74
    0
 49
-12.7
 74
    0
  0
LTYPE
  5
3A
330
5
100
AcDbSymbolTableRecord
100
AcDbLinetypeTableRecord
  2
DASHDOT
 70
    0
  3
Dash dot __ . __ . __ . __ . __ . __ . __ . __
 72
   65
 73
    4
 40
25.4
 49
12.7
 74
    0
 49
-6.35
 74
    0
 49
0
 74
    0
 49
-6.35
 74
    0
  0
LTYPE
  5
3B
330
5
100
AcDbSymbolTableRecord
100
AcDbLinetypeTableRecord
  2
DASHDOTTINY
 70
    0
  3
Dash dot (.15x) _._._._._._._._._._._._._._._.
 72
   65
 73
    4
 40
3.81
 49
1.905
 74
    0
 49
-0.9525
 74
    0
 49
0
 74
    0
 49
-0.9525
 74
    0
  0
LTYPE
  5
3C
330
5
100
AcDbSymbolTableRecord
100
AcDbLinetypeTableRecord
  2
DASHDOT2
 70
    0
  3
Dash dot (.5x) _._._._._._._._._._._._._._._.
 72
   65
 73
    4
 40
12.7
 49
6.35
 74
    0
 49
-3.175
 74
    0
 49
0
 74
    0
 49
-3.175
 74
    0
  0
LTYPE
  5
3D
330
5
100
AcDbSymbolTableRecord
100
AcDbLinetypeTableRecord
  2
DASHDOTX2
 70
    0
  3
Dash dot (2x) ____  .  ____  .  ____  .  ___
 72
   65
 73
    4
 40
50.8
 49
25.4
 74
    0
 49
-12.7
 74
    0
 49
0
 74
    0
 49
-12.7
 74
    0
  0
LTYPE
  5
3E
330
5
100
AcDbSymbolTableRecord
100
AcDbLinetypeTableRecord
  2
DIVIDE
 70
    0
  3
Divide ____ . . ____ . . ____ . . ____ . . ____
 72
   65
 73
    6
 40
31.75
 49
12.7
 74
    0
 49
-6.35
 74
    0
 49
0
 74
    0
 49
-6.35
 74
    0
 49
0
 74
    0
 49
-6.35
 74
    0
  0
LTYPE
  5
3F
330
5
100
AcDbSymbolTableRecord
100
AcDbLinetypeTableRecord
  2
DIVIDETINY
 70
    0
  3
Divide (.15x) __..__..__..__..__..__..__..__.._
 72
   65
 73
    6
 40
4.7625
 49
1.905
 74
    0
 49
-0.9525
 74
    0
 49
0
 74
    0
 49
-0.9525
 74
    0
 49
0
 74
    0
 49
-0.9525
 74
    0
  0
LTYPE
  5
40
330
5
100
AcDbSymbolTableRecord
100
AcDbLinetypeTableRecord
  2
DIVIDE2
 70
    0
  3
Divide (.5x) __..__..__..__..__..__..__..__.._
 72
   65
 73
    6
 40
15.875
 49
6.35
 74
    0
 49
-3.175
 74
    0
 49
0
 74
    0
 49
-3.175
 74
    0
 49
0
 74
    0
 49
-3.175
 74
    0
  0
LTYPE
  5
41
330
5
100
AcDbSymbolTableRecord
100
AcDbLinetypeTableRecord
  2
DIVIDEX2
 70
    0
  3
Divide (2x) ________  .  .  ________  .  .  _
 72
   65
 73
    6
 40
63.5
 49
25.4
 74
    0
 49
-12.7
 74
    0
 49
0
 74
    0
 49
-12.7
 74
    0
 49
0
 74
    0
 49
-12.7
 74
    0
  0
LTYPE
  5
42
330
5
100
AcDbSymbolTableRecord
100
AcDbLinetypeTableRecord
  2
BORDER
 70
    0
  3
Border __ __ . __ __ . __ __ . __ __ . __ __ .
 72
   65
 73
    6
 40
44.45
 49
12.7
 74
    0
 49
-6.35
 74
    0
 49
12.7
 74
    0
 49
-6.35
 74
    0
 49
0
 74
    0
 49
-6.35
 74
    0
  0
LTYPE
  5
43
330
5
100
AcDbSymbolTableRecord
100
AcDbLinetypeTableRecord
  2
BORDERTINY
 70
    0
  3
Border (.15x) __.__.__.__.__.__.__.__.__.__.__.
 72
   65
 73
    6
 40
6.6675
 49
1.905
 74
    0
 49
-0.9525
 74
    0
 49
1.905
 74
    0
 49
-0.9525
 74
    0
 49
0
 74
    0
 49
-0.9525
 74
    0
  0
LTYPE
  5
44
330
5
100
AcDbSymbolTableRecord
100
AcDbLinetypeTableRecord
  2
BORDER2
 70
    0
  3
Border (.5x) __.__.__.__.__.__.__.__.__.__.__.
 72
   65
 73
    6
 40
22.225
 49
6.35
 74
    0
 49
-3.175
 74
    0
 49
6.35
 74
    0
 49
-3.175
 74
    0
 49
0
 74
    0
 49
-3.175
 74
    0
  0
LTYPE
  5
45
330
5
100
AcDbSymbolTableRecord
100
AcDbLinetypeTableRecord
  2
BORDERX2
 70
    0
  3
Border (2x) ____  ____  .  ____  ____  .  ___
 72
   65
 73
    6
 40
88.89999999999999
 49
25.4
 74
    0
 49
-12.7
 74
    0
 49
25.4
 74
    0
 49
-12.7
 74
    0
 49
0
 74
    0
 49
-12.7
 74
    0
  0
LTYPE
  5
46
330
5
100
AcDbSymbolTableRecord
100
AcDbLinetypeTableRecord
  2
CENTER
 70
    0
  3
Center ____ _ ____ _ ____ _ ____ _ ____ _ ____
 72
   65
 73
    4
 40
50.8
 49
31.75
 74
    0
 49
-6.35
 74
    0
 49
6.35
 74
    0
 49
-6.35
 74
    0
  0
LTYPE
  5
47
330
5
100
AcDbSymbolTableRecord
100
AcDbLinetypeTableRecord
  2
CENTERTINY
 70
    0
  3
Center (.15x) ___ _ ___ _ ___ _ ___ _ ___ _ ___
 72
   65
 73
    4
 40
7.62
 49
4.7625
 74
    0
 49
-0.9525
 74
    0
 49
0.9525
 74
    0
 49
-0.9525
 74
    0
  0
LTYPE
  5
48
330
5
100
AcDbSymbolTableRecord
100
AcDbLinetypeTableRecord
  2
CENTER2
 70
    0
  3
Center (.5x) ___ _ ___ _ ___ _ ___ _ ___ _ ___
 72
   65
 73
    4
 40
28.575
 49
19.05
 74
    0
 49
-3.175
 74
    0
 49
3.175
 74
    0
 49
-3.175
 74
    0
  0
LTYPE
  5
49
330
5
100
AcDbSymbolTableRecord
100
AcDbLinetypeTableRecord
  2
CENTERX2
 70
    0
  3
Center (2x) ________  __  ________  __  _____
 72
   65
 73
    4
 40
101.6
 49
63.5
 74
    0
 49
-12.7
 74
    0
 49
12.7
 74
    0
 49
-12.7
 74
    0
  0
ENDTAB
  0
TABLE
  2
LAYER
  5
2
330
0
100
AcDbSymbolTable
 70
    1
  0
LAYER
  5
10
330
2
100
AcDbSymbolTableRecord
100
AcDbLayerTableRecord
  2
0
 70
    1
 62
    7
  6
CONTINUOUS
370
    0
390
F
  0
LAYER
  5
4A
330
2
100
AcDbSymbolTableRecord
100
AcDbLayerTableRecord
  2
arret cacher
 70
    4
 62
    7
  6
DASHED2
370
   50
390
F
  0
LAYER
  5
4B
330
2
100
AcDbSymbolTableRecord
100
AcDbLayerTableRecord
  2
arret de vue
 70
    0
 62
    7
  6
CONTINUOUS
370
   50
390
F
  0
LAYER
  5
4C
330
2
100
AcDbSymbolTableRecord
100
AcDbLayerTableRecord
  2
cotation
 70
    0
 62
    5
  6
CONTINUOUS
370
   35
390
F
  0
LAYER
  5
4D
330
2
100
AcDbSymbolTableRecord
100
AcDbLayerTableRecord
  2
meplat
 70
    0
 62
    7
  6
CONTINUOUS
370
   25
390
F
  0
LAYER
  5
4E
330
2
100
AcDbSymbolTableRecord
100
AcDbLayerTableRecord
  2
traitdaxes
 70
    0
 62
    2
  6
DASHDOT2
370
   35
390
F
  0
LAYER
  5
4F
330
2
100
AcDbSymbolTableRecord
100
AcDbLayerTableRecord
  2
traitdeconstruction
 70
    0
 62
  253
420
10526884
  6
CONTINUOUS
370
   25
390
F
  0
LAYER
  5
50
330
2
100
AcDbSymbolTableRecord
100
AcDbLayerTableRecord
  2
traitdepliage
 70
    0
 62
    1
  6
CONTINUOUS
370
   35
390
F
  0
ENDTAB
  0
TABLE
  2
STYLE
  5
3
330
0
100
AcDbSymbolTable
 70
    3
  0
STYLE
  5
51
330
2
100
AcDbSymbolTableRecord
100
AcDbTextStyleTableRecord
  2
romans
 70
    0
 40
0
 41
1
 50
0
 71
    0
 42
1
  3
romans
  4

  0
STYLE
  5
52
330
2
100
AcDbSymbolTableRecord
100
AcDbTextStyleTableRecord
  2
Standard
 70
    0
 40
0
 41
1
 50
0
 71
    0
 42
1
  3
txt
  4

  0
ENDTAB
  0
TABLE
  2
VIEW
  5
6
330
0
100
AcDbSymbolTable
 70
    0
  0
ENDTAB
  0
TABLE
  2
UCS
  5
7
330
0
100
AcDbSymbolTable
 70
    0
  0
ENDTAB
  0
TABLE
  2
APPID
  5
9
330
0
100
AcDbSymbolTable
 70
    1
  0
APPID
  5
12
330
9
100
AcDbSymbolTableRecord
100
AcDbRegAppTableRecord
  2
ACAD
 70
    0
  0
APPID
  5
53
330
9
100
AcDbSymbolTableRecord
100
AcDbRegAppTableRecord
  2
LibreCad
 70
    0
  0
ENDTAB
  0
TABLE
  2
DIMSTYLE
  5
A
330
0
100
AcDbSymbolTable
 70
    1
100
AcDbDimStyleTable
 71
    1
  0
DIMSTYLE
105
54
330
A
100
AcDbSymbolTableRecord
100
AcDbDimStyleTableRecord
  2
Standard
 70
    0
 40
2.5
 41
2.5
 42
0.625
 43
0.38
 44
1.25
 45
0
 46
0
 47
0
 48
0
 49
1
140
2.5
141
0.09
142
0
143
25.4
144
1
145
0
146
1
147
0.625
148
0
 71
    0
 72
    0
 73
    0
 74
    1
 75
    0
 76
    0
 77
    0
 78
    8
 79
    0
170
    0
171
    2
172
    0
173
    0
174
    0
175
    0
176
    0
177
    0
178
    0
179
    0
271
    2
272
    4
273
    2
274
    2
275
    0
276
    0
277
    2
278
   44
279
    0
280
    0
281
    0
282
    0
283
    1
284
    0
285
    0
286
    0
288
    0
289
    3
340
standard
341

371
   -2
372
   -2
  0
ENDTAB
  0
TABLE
  2
BLOCK_RECORD
  5
1
330
0
100
AcDbSymbolTable
 70
    2
  0
BLOCK_RECORD
  5
1F
330
1
100
AcDbSymbolTableRecord
100
AcDbBlockTableRecord
  2
*Model_Space
 70
    0
280
    1
281
    0
  0
BLOCK_RECORD
  5
1E
330
1
100
AcDbSymbolTableRecord
100
AcDbBlockTableRecord
  2
*Paper_Space
 70
    0
280
    1
281
    0
  0
BLOCK_RECORD
  5
55
330
1
100
AcDbSymbolTableRecord
100
AcDbBlockTableRecord
  2
*D4
 70
    0
280
    1
281
    0
  0
BLOCK_RECORD
  5
58
330
1
100
AcDbSymbolTableRecord
100
AcDbBlockTableRecord
  2
*D9
 70
    0
280
    1
281
    0
  0
BLOCK_RECORD
  5
5B
330
1
100
AcDbSymbolTableRecord
100
AcDbBlockTableRecord
  2
*D7
 70
    0
280
    1
281
    0
  0
BLOCK_RECORD
  5
5E
330
1
100
AcDbSymbolTableRecord
100
AcDbBlockTableRecord
  2
*D8
 70
    0
280
    1
281
    0
  0
BLOCK_RECORD
  5
61
330
1
100
AcDbSymbolTableRecord
100
AcDbBlockTableRecord
  2
*D10
 70
    0
280
    1
281
    0
  0
BLOCK_RECORD
  5
64
330
1
100
AcDbSymbolTableRecord
100
AcDbBlockTableRecord
  2
*D1
 70
    0
280
    1
281
    0
  0
BLOCK_RECORD
  5
67
330
1
100
AcDbSymbolTableRecord
100
AcDbBlockTableRecord
  2
*D3
 70
    0
280
    1
281
    0
  0
BLOCK_RECORD
  5
6A
330
1
100
AcDbSymbolTableRecord
100
AcDbBlockTableRecord
  2
*D5
 70
    0
280
    1
281
    0
  0
BLOCK_RECORD
  5
6D
330
1
100
AcDbSymbolTableRecord
100
AcDbBlockTableRecord
  2
*D12
 70
    0
280
    1
281
    0
  0
BLOCK_RECORD
  5
70
330
1
100
AcDbSymbolTableRecord
100
AcDbBlockTableRecord
  2
*D2
 70
    0
280
    1
281
    0
  0
BLOCK_RECORD
  5
73
330
1
100
AcDbSymbolTableRecord
100
AcDbBlockTableRecord
  2
*D11
 70
    0
280
    1
281
    0
  0
BLOCK_RECORD
  5
76
330
1
100
AcDbSymbolTableRecord
100
AcDbBlockTableRecord
  2
*D6
 70
    0
280
    1
281
    0
  0
BLOCK_RECORD
  5
79
330
1
100
AcDbSymbolTableRecord
100
AcDbBlockTableRecord
  2
*D13
 70
    0
280
    1
281
    0
  0
ENDTAB
  0
ENDSEC
  0
SECTION
  2
BLOCKS
  0
BLOCK
  5
20
330
1F
100
AcDbEntity
  8
0
100
AcDbBlockBegin
  2
*Model_Space
 70
    0
 10
0
 20
0
 30
0
  3
*Model_Space
  1

  0
ENDBLK
  5
21
330
1F
100
AcDbEntity
  8
0
100
AcDbBlockEnd
  0
BLOCK
  5
1C
330
1B
100
AcDbEntity
  8
0
100
AcDbBlockBegin
  2
*Paper_Space
 70
    0
 10
0
 20
0
 30
0
  3
*Paper_Space
  1

  0
ENDBLK
  5
1D
330
1F
100
AcDbEntity
  8
0
100
AcDbBlockEnd
  0
BLOCK
  5
56
330
55
100
AcDbEntity
  8
0
100
AcDbBlockBegin
  2
*D4
 70
    1
 10
0
 20
0
  3
*D4
  1

  0
LINE
  5
7C
100
AcDbEntity
  8
cotation
  6
ByBlock
 62
    0
370
   -2
100
AcDbLine
 10
0
 20
-42.73915912178133
 11
283
 21
-42.73915912178133
  0
SOLID
  5
7D
100
AcDbEntity
  8
cotation
  6
ByBlock
 62
    0
370
   -2
100
AcDbTrace
 10
0
 20
-42.73915912178133
 30
0
 11
6.25
 21
-41.69844747734923
 31
0
 12
6.25
 22
-43.77987076621343
 32
0
 13
6.25
 23
-43.77987076621343
 33
0
  0
SOLID
  5
7E
100
AcDbEntity
  8
cotation
  6
ByBlock
 62
    0
370
   -2
100
AcDbTrace
 10
283
 20
-42.73915912178133
 30
0
 11
276.75
 21
-43.77987076621343
 31
0
 12
276.75
 22
-41.69844747734923
 32
0
 13
276.75
 23
-41.69844747734923
 33
0
  0
MTEXT
  5
7F
100
AcDbEntity
  8
cotation
  6
CONTINUOUS
 62
    0
370
   -2
100
AcDbMText
 10
141.5
 20
-38.05165912178133
 30
0
 40
6.25
 41
12.50000000000039
 71
    5
 72
    1
  1
283
  7
standard
210
0
220
0
230
1
 50
0
 73
    2
 44
1
  0
LINE
  5
80
100
AcDbEntity
  8
cotation
  6
ByBlock
 62
    0
370
   -2
100
AcDbLine
 10
-2.870171141771197e-016
 20
10.9375
 11
-5.740342283542393e-016
 21
-45.86415912178133
  0
LINE
  5
81
100
AcDbEntity
  8
cotation
  6
ByBlock
 62
    0
370
   -2
100
AcDbLine
 10
283
 20
-1.5625
 11
283
 21
-45.86415912178133
  0
ENDBLK
  5
57
330
55
100
AcDbEntity
  8
0
100
AcDbBlockEnd
  0
BLOCK
  5
59
330
58
100
AcDbEntity
  8
0
100
AcDbBlockBegin
  2
*D9
 70
    1
 10
0
 20
0
  3
*D9
  1

  0
LINE
  5
82
100
AcDbEntity
  8
cotation
  6
ByBlock
 62
    0
370
   -2
100
AcDbLine
 10
-12.5
 20
196.2630726452825
 11
23.90000000000001
 21
196.2630726452825
  0
SOLID
  5
83
100
AcDbEntity
  8
cotation
  6
ByBlock
 62
    0
370
   -2
100
AcDbTrace
 10
0
 20
196.2630726452825
 30
0
 11
-6.25
 21
195.2223610008504
 31
0
 12
-6.25
 22
197.3037842897146
 32
0
 13
-6.25
 23
197.3037842897146
 33
0
  0
SOLID
  5
84
100
AcDbEntity
  8
cotation
  6
ByBlock
 62
    0
370
   -2
100
AcDbTrace
 10
11.40000000000001
 20
196.2630726452825
 30
0
 11
17.65000000000001
 21
197.3037842897146
 31
0
 12
17.65000000000001
 22
195.2223610008504
 32
0
 13
17.65000000000001
 23
195.2223610008504
 33
0
  0
MTEXT
  5
85
100
AcDbEntity
  8
cotation
  6
CONTINUOUS
 62
    0
370
   -2
100
AcDbMText
 10
19.38611111111112
 20
200.9505726452825
 30
0
 40
6.25
 41
12.84722222222222
 71
    5
 72
    1
  1
11,4
  7
standard
210
0
220
0
230
1
 50
0
 73
    2
 44
1
  0
LINE
  5
86
100
AcDbEntity
  8
cotation
  6
ByBlock
 62
    0
370
   -2
100
AcDbLine
 10
9.567237139237322e-017
 20
161.5625
 11
1.913447427847464e-016
 21
199.3880726452825
  0
LINE
  5
87
100
AcDbEntity
  8
cotation
  6
ByBlock
 62
    0
370
   -2
100
AcDbLine
 10
11.40000000000001
 20
166.6484950859951
 11
11.40000000000001
 21
199.3880726452825
  0
ENDBLK
  5
5A
330
58
100
AcDbEntity
  8
0
100
AcDbBlockEnd
  0
BLOCK
  5
5C
330
5B
100
AcDbEntity
  8
0
100
AcDbBlockBegin
  2
*D7
 70
    1
 10
0
 20
0
  3
*D7
  1

  0
LINE
  5
88
100
AcDbEntity
  8
cotation
  6
ByBlock
 62
    0
370
   -2
100
AcDbLine
 10
-16.51655892075984
 20
0
 11
-16.51655892075983
 21
120
  0
SOLID
  5
89
100
AcDbEntity
  8
cotation
  6
ByBlock
 62
    0
370
   -2
100
AcDbTrace
 10
-16.51655892075984
 20
0
 30
0
 11
-17.55727056519194
 21
6.25
 31
0
 12
-15.47584727632774
 22
6.25
 32
0
 13
-15.47584727632774
 23
6.25
 33
0
  0
SOLID
  5
8A
100
AcDbEntity
  8
cotation
  6
ByBlock
 62
    0
370
   -2
100
AcDbTrace
 10
-16.51655892075983
 20
120
 30
0
 11
-15.47584727632773
 21
113.75
 31
0
 12
-17.55727056519193
 22
113.75
 32
0
 13
-17.55727056519193
 23
113.75
 33
0
  0
MTEXT
  5
8B
100
AcDbEntity
  8
cotation
  6
CONTINUOUS
 62
    0
370
   -2
100
AcDbMText
 10
-21.20405892075983
 20
60
 30
0
 40
6.25
 41
11.11111111111111
 71
    5
 72
    1
  1
120
  7
standard
210
0
220
0
230
1
 50
90
 73
    2
 44
1
  0
LINE
  5
8C
100
AcDbEntity
  8
cotation
  6
ByBlock
 62
    0
370
   -2
100
AcDbLine
 10
10.93749999999999
 20
1.913447427847464e-016
 11
-19.64155892075984
 21
3.826894855694929e-016
  0
LINE
  5
8D
100
AcDbEntity
  8
cotation
  6
ByBlock
 62
    0
370
   -2
100
AcDbLine
 10
-1.5625
 20
120
 11
-19.64155892075983
 21
120
  0
ENDBLK
  5
5D
330
5B
100
AcDbEntity
  8
0
100
AcDbBlockEnd
  0
BLOCK
  5
5F
330
5E
100
AcDbEntity
  8
0
100
AcDbBlockBegin
  2
*D8
 70
    1
 10
0
 20
0
  3
*D8
  1

  0
LINE
  5
8E
100
AcDbEntity
  8
cotation
  6
ByBlock
 62
    0
370
   -2
100
AcDbLine
 10
-26.76821618192114
 20
0
 11
-26.76821618192113
 21
160
  0
SOLID
  5
8F
100
AcDbEntity
  8
cotation
  6
ByBlock
 62
    0
370
   -2
100
AcDbTrace
 10
-26.76821618192114
 20
0
 30
0
 11
-27.80892782635324
 21
6.25
 31
0
 12
-25.72750453748904
 22
6.25
 32
0
 13
-25.72750453748904
 23
6.25
 33
0
  0
SOLID
  5
90
100
AcDbEntity
  8
cotation
  6
ByBlock
 62
    0
370
   -2
100
AcDbTrace
 10
-26.76821618192113
 20
160
 30
0
 11
-25.72750453748903
 21
153.75
 31
0
 12
-27.80892782635323
 22
153.75
 32
0
 13
-27.80892782635323
 23
153.75
 33
0
  0
MTEXT
  5
91
100
AcDbEntity
  8
cotation
  6
CONTINUOUS
 62
    0
370
   -2
100
AcDbMText
 10
-31.45571618192113
 20
80
 30
0
 40
6.25
 41
11.1111111111115
 71
    5
 72
    1
  1
160
  7
standard
210
0
220
0
230
1
 50
90
 73
    2
 44
1
  0
LINE
  5
92
100
AcDbEntity
  8
cotation
  6
ByBlock
 62
    0
370
   -2
100
AcDbLine
 10
10.93749999999999
 20
1.913447427847464e-016
 11
-29.89321618192114
 21
3.826894855694929e-016
  0
LINE
  5
93
100
AcDbEntity
  8
cotation
  6
ByBlock
 62
    0
370
   -2
100
AcDbLine
 10
-1.5625
 20
160
 11
-29.89321618192113
 21
160
  0
ENDBLK
  5
60
330
5E
100
AcDbEntity
  8
0
100
AcDbBlockEnd
  0
BLOCK
  5
62
330
61
100
AcDbEntity
  8
0
100
AcDbBlockBegin
  2
*D10
 70
    1
 10
0
 20
0
  3
*D10
  1

  0
LINE
  5
94
100
AcDbEntity
  8
cotation
  6
ByBlock
 62
    0
370
   -2
100
AcDbLine
 10
-12.5
 20
206.8561347889095
 11
26.3
 21
206.8561347889095
  0
SOLID
  5
95
100
AcDbEntity
  8
cotation
  6
ByBlock
 62
    0
370
   -2
100
AcDbTrace
 10
0
 20
206.8561347889095
 30
0
 11
-6.25
 21
205.8154231444774
 31
0
 12
-6.25
 22
207.8968464333416
 32
0
 13
-6.25
 23
207.8968464333416
 33
0
  0
SOLID
  5
96
100
AcDbEntity
  8
cotation
  6
ByBlock
 62
    0
370
   -2
100
AcDbTrace
 10
13.8
 20
206.8561347889095
 30
0
 11
20.05
 21
207.8968464333416
 31
0
 12
20.05
 22
205.8154231444774
 32
0
 13
20.05
 23
205.8154231444774
 33
0
  0
MTEXT
  5
97
100
AcDbEntity
  8
cotation
  6
CONTINUOUS
 62
    0
370
   -2
100
AcDbMText
 10
6.9
 20
211.5436347889095
 30
0
 40
6.25
 41
13.54166666666706
 71
    5
 72
    1
  1
13,8
  7
standard
210
0
220
0
230
1
 50
0
 73
    2
 44
1
  0
LINE
  5
98
100
AcDbEntity
  8
cotation
  6
ByBlock
 62
    0
370
   -2
100
AcDbLine
 10
9.567237139237322e-017
 20
161.5625
 11
1.913447427847464e-016
 21
209.9811347889095
  0
LINE
  5
99
100
AcDbEntity
  8
cotation
  6
ByBlock
 62
    0
370
   -2
100
AcDbLine
 10
13.8
 20
166.6484950859951
 11
13.8
 21
209.9811347889095
  0
ENDBLK
  5
63
330
61
100
AcDbEntity
  8
0
100
AcDbBlockEnd
  0
BLOCK
  5
65
330
64
100
AcDbEntity
  8
0
100
AcDbBlockBegin
  2
*D1
 70
    1
 10
0
 20
0
  3
*D1
  1

  0
LINE
  5
9A
100
AcDbEntity
  8
cotation
  6
ByBlock
 62
    0
370
   -2
100
AcDbLine
 10
-12.5
 20
-10.4617404973389
 11
24.99999999999999
 21
-10.4617404973389
  0
SOLID
  5
9B
100
AcDbEntity
  8
cotation
  6
ByBlock
 62
    0
370
   -2
100
AcDbTrace
 10
1.77635683940025e-015
 20
-10.4617404973389
 30
0
 11
-6.249999999999998
 21
-11.502452141771
 31
0
 12
-6.249999999999998
 22
-9.421028852906799
 32
0
 13
-6.249999999999998
 23
-9.421028852906799
 33
0
  0
SOLID
  5
9C
100
AcDbEntity
  8
cotation
  6
ByBlock
 62
    0
370
   -2
100
AcDbTrace
 10
12.49999999999999
 20
-10.4617404973389
 30
0
 11
18.74999999999999
 21
-9.421028852906799
 31
0
 12
18.74999999999999
 22
-11.502452141771
 32
0
 13
18.74999999999999
 23
-11.502452141771
 33
0
  0
MTEXT
  5
9D
100
AcDbEntity
  8
cotation
  6
CONTINUOUS
 62
    0
370
   -2
100
AcDbMText
 10
20.83333333333352
 20
-5.774240497338903
 30
0
 40
6.25
 41
13.54166666666706
 71
    5
 72
    1
  1
12,5
  7
standard
210
0
220
0
230
1
 50
360
 73
    2
 44
1
  0
LINE
  5
9E
100
AcDbEntity
  8
cotation
  6
ByBlock
 62
    0
370
   -2
100
AcDbLine
 10
1.570720956729429e-016
 20
10.9375
 11
1.202322611046011e-015
 21
-13.5867404973389
  0
LINE
  5
9F
100
AcDbEntity
  8
cotation
  6
ByBlock
 62
    0
370
   -2
100
AcDbLine
 10
12.49999999999999
 20
-1.5625
 11
12.49999999999999
 21
-13.5867404973389
  0
ENDBLK
  5
66
330
64
100
AcDbEntity
  8
0
100
AcDbBlockEnd
  0
BLOCK
  5
68
330
67
100
AcDbEntity
  8
0
100
AcDbBlockBegin
  2
*D3
 70
    1
 10
0
 20
0
  3
*D3
  1

  0
LINE
  5
A0
100
AcDbEntity
  8
cotation
  6
ByBlock
 62
    0
370
   -2
100
AcDbLine
 10
0
 20
-31.40680632433931
 11
81.39999999999999
 21
-31.40680632433931
  0
SOLID
  5
A1
100
AcDbEntity
  8
cotation
  6
ByBlock
 62
    0
370
   -2
100
AcDbTrace
 10
0
 20
-31.40680632433931
 30
0
 11
6.25
 21
-30.36609467990721
 31
0
 12
6.25
 22
-32.44751796877141
 32
0
 13
6.25
 23
-32.44751796877141
 33
0
  0
SOLID
  5
A2
100
AcDbEntity
  8
cotation
  6
ByBlock
 62
    0
370
   -2
100
AcDbTrace
 10
81.39999999999999
 20
-31.40680632433931
 30
0
 11
75.14999999999999
 21
-32.44751796877141
 31
0
 12
75.14999999999999
 22
-30.36609467990721
 32
0
 13
75.14999999999999
 23
-30.36609467990721
 33
0
  0
MTEXT
  5
A3
100
AcDbEntity
  8
cotation
  6
CONTINUOUS
 62
    0
370
   -2
100
AcDbMText
 10
40.7
 20
-26.71930632433931
 30
0
 40
6.25
 41
14.23611111111111
 71
    5
 72
    1
  1
81,4
  7
standard
210
0
220
0
230
1
 50
0
 73
    2
 44
1
  0
LINE
  5
A4
100
AcDbEntity
  8
cotation
  6
ByBlock
 62
    0
370
   -2
100
AcDbLine
 10
-2.870171141771197e-016
 20
10.9375
 11
-5.740342283542393e-016
 21
-34.53180632433931
  0
LINE
  5
A5
100
AcDbEntity
  8
cotation
  6
ByBlock
 62
    0
370
   -2
100
AcDbLine
 10
81.39999999999999
 20
-1.5625
 11
81.39999999999999
 21
-34.53180632433931
  0
ENDBLK
  5
69
330
67
100
AcDbEntity
  8
0
100
AcDbBlockEnd
  0
BLOCK
  5
6B
330
6A
100
AcDbEntity
  8
0
100
AcDbBlockBegin
  2
*D5
 70
    1
 10
0
 20
0
  3
*D5
  1

  0
LINE
  5
A6
100
AcDbEntity
  8
cotation
  6
ByBlock
 62
    0
370
   -2
100
AcDbLine
 10
0
 20
-56.33798247871176
 11
364.4
 21
-56.33798247871176
  0
SOLID
  5
A7
100
AcDbEntity
  8
cotation
  6
ByBlock
 62
    0
370
   -2
100
AcDbTrace
 10
0
 20
-56.33798247871176
 30
0
 11
6.25
 21
-55.29727083427966
 31
0
 12
6.25
 22
-57.37869412314386
 32
0
 13
6.25
 23
-57.37869412314386
 33
0
  0
SOLID
  5
A8
100
AcDbEntity
  8
cotation
  6
ByBlock
 62
    0
370
   -2
100
AcDbTrace
 10
364.4
 20
-56.33798247871176
 30
0
 11
358.15
 21
-57.37869412314386
 31
0
 12
358.15
 22
-55.29727083427966
 32
0
 13
358.15
 23
-55.29727083427966
 33
0
  0
MTEXT
  5
A9
100
AcDbEntity
  8
cotation
  6
CONTINUOUS
 62
    0
370
   -2
100
AcDbMText
 10
182.2
 20
-51.65048247871176
 30
0
 40
6.25
 41
21.18055555555633
 71
    5
 72
    1
  1
364,4
  7
standard
210
0
220
0
230
1
 50
0
 73
    2
 44
1
  0
LINE
  5
AA
100
AcDbEntity
  8
cotation
  6
ByBlock
 62
    0
370
   -2
100
AcDbLine
 10
-2.870171141771197e-016
 20
10.9375
 11
-5.740342283542393e-016
 21
-59.46298247871176
  0
LINE
  5
AB
100
AcDbEntity
  8
cotation
  6
ByBlock
 62
    0
370
   -2
100
AcDbLine
 10
364.4
 20
10.93749999999998
 11
364.4
 21
-59.46298247871176
  0
ENDBLK
  5
6C
330
6A
100
AcDbEntity
  8
0
100
AcDbBlockEnd
  0
BLOCK
  5
6E
330
6D
100
AcDbEntity
  8
0
100
AcDbBlockBegin
  2
*D12
 70
    1
 10
0
 20
0
  3
*D12
  1

  0
LINE
  5
AC
100
AcDbEntity
  8
cotation
  6
ByBlock
 62
    0
370
   -2
100
AcDbLine
 10
0
 20
232.2960719276126
 11
353
 21
232.2960719276126
  0
SOLID
  5
AD
100
AcDbEntity
  8
cotation
  6
ByBlock
 62
    0
370
   -2
100
AcDbTrace
 10
0
 20
232.2960719276126
 30
0
 11
6.25
 21
233.3367835720447
 31
0
 12
6.25
 22
231.2553602831805
 32
0
 13
6.25
 23
231.2553602831805
 33
0
  0
SOLID
  5
AE
100
AcDbEntity
  8
cotation
  6
ByBlock
 62
    0
370
   -2
100
AcDbTrace
 10
353
 20
232.2960719276126
 30
0
 11
346.75
 21
231.2553602831805
 31
0
 12
346.75
 22
233.3367835720447
 32
0
 13
346.75
 23
233.3367835720447
 33
0
  0
MTEXT
  5
AF
100
AcDbEntity
  8
cotation
  6
CONTINUOUS
 62
    0
370
   -2
100
AcDbMText
 10
176.5
 20
236.9835719276126
 30
0
 40
6.25
 41
12.50000000000116
 71
    5
 72
    1
  1
353
  7
standard
210
0
220
0
230
1
 50
0
 73
    2
 44
1
  0
LINE
  5
B0
100
AcDbEntity
  8
cotation
  6
ByBlock
 62
    0
370
   -2
100
AcDbLine
 10
9.567237139237322e-017
 20
191.5625
 11
1.913447427847464e-016
 21
235.4210719276126
  0
LINE
  5
B1
100
AcDbEntity
  8
cotation
  6
ByBlock
 62
    0
370
   -2
100
AcDbLine
 10
353
 20
166.6484950859951
 11
353
 21
235.4210719276126
  0
ENDBLK
  5
6F
330
6D
100
AcDbEntity
  8
0
100
AcDbBlockEnd
  0
BLOCK
  5
71
330
70
100
AcDbEntity
  8
0
100
AcDbBlockBegin
  2
*D2
 70
    1
 10
0
 20
0
  3
*D2
  1

  0
LINE
  5
B2
100
AcDbEntity
  8
cotation
  6
ByBlock
 62
    0
370
   -2
100
AcDbLine
 10
-12.5
 20
-23.05457628117275
 11
26.29999999999999
 21
-23.05457628117275
  0
SOLID
  5
B3
100
AcDbEntity
  8
cotation
  6
ByBlock
 62
    0
370
   -2
100
AcDbTrace
 10
-1.77635683940025e-015
 20
-23.05457628117275
 30
0
 11
-6.250000000000002
 21
-24.09528792560485
 31
0
 12
-6.250000000000002
 22
-22.01386463674065
 32
0
 13
-6.250000000000002
 23
-22.01386463674065
 33
0
  0
SOLID
  5
B4
100
AcDbEntity
  8
cotation
  6
ByBlock
 62
    0
370
   -2
100
AcDbTrace
 10
13.79999999999999
 20
-23.05457628117275
 30
0
 11
20.04999999999999
 21
-22.01386463674065
 31
0
 12
20.04999999999999
 22
-24.09528792560485
 32
0
 13
20.04999999999999
 23
-24.09528792560485
 33
0
  0
MTEXT
  5
B5
100
AcDbEntity
  8
cotation
  6
CONTINUOUS
 62
    0
370
   -2
100
AcDbMText
 10
6.899999999999994
 20
-18.36707628117275
 30
0
 40
6.25
 41
13.54166666666706
 71
    5
 72
    1
  1
13,8
  7
standard
210
0
220
0
230
1
 50
0
 73
    2
 44
1
  0
LINE
  5
B6
100
AcDbEntity
  8
cotation
  6
ByBlock
 62
    0
370
   -2
100
AcDbLine
 10
-2.870171141771197e-016
 20
10.9375
 11
-2.35039106775449e-015
 21
-26.17957628117275
  0
LINE
  5
B7
100
AcDbEntity
  8
cotation
  6
ByBlock
 62
    0
370
   -2
100
AcDbLine
 10
13.79999999999999
 20
-1.5625
 11
13.79999999999999
 21
-26.17957628117275
  0
ENDBLK
  5
72
330
70
100
AcDbEntity
  8
0
100
AcDbBlockEnd
  0
BLOCK
  5
74
330
73
100
AcDbEntity
  8
0
100
AcDbBlockBegin
  2
*D11
 70
    1
 10
0
 20
0
  3
*D11
  1

  0
LINE
  5
B8
100
AcDbEntity
  8
cotation
  6
ByBlock
 62
    0
370
   -2
100
AcDbLine
 10
0
 20
220.235999712559
 11
350.6
 21
220.235999712559
  0
SOLID
  5
B9
100
AcDbEntity
  8
cotation
  6
ByBlock
 62
    0
370
   -2
100
AcDbTrace
 10
0
 20
220.235999712559
 30
0
 11
6.25
 21
221.2767113569911
 31
0
 12
6.25
 22
219.1952880681269
 32
0
 13
6.25
 23
219.1952880681269
 33
0
  0
SOLID
  5
BA
100
AcDbEntity
  8
cotation
  6
ByBlock
 62
    0
370
   -2
100
AcDbTrace
 10
350.6
 20
220.235999712559
 30
0
 11
344.35
 21
219.1952880681269
 31
0
 12
344.35
 22
221.2767113569911
 32
0
 13
344.35
 23
221.2767113569911
 33
0
  0
MTEXT
  5
BB
100
AcDbEntity
  8
cotation
  6
CONTINUOUS
 62
    0
370
   -2
100
AcDbMText
 10
175.3
 20
224.923499712559
 30
0
 40
6.25
 41
19.79166666666783
 71
    5
 72
    1
  1
350,6
  7
standard
210
0
220
0
230
1
 50
0
 73
    2
 44
1
  0
LINE
  5
BC
100
AcDbEntity
  8
cotation
  6
ByBlock
 62
    0
370
   -2
100
AcDbLine
 10
1.598747908392991e-015
 20
191.5625
 11
1.913447427847464e-016
 21
223.360999712559
  0
LINE
  5
BD
100
AcDbEntity
  8
cotation
  6
ByBlock
 62
    0
370
   -2
100
AcDbLine
 10
350.6
 20
166.6484950859951
 11
350.6
 21
223.360999712559
  0
ENDBLK
  5
75
330
73
100
AcDbEntity
  8
0
100
AcDbBlockEnd
  0
BLOCK
  5
77
330
76
100
AcDbEntity
  8
0
100
AcDbBlockBegin
  2
*D6
 70
    1
 10
0
 20
0
  3
*D6
  1

  0
LINE
  5
BE
100
AcDbEntity
  8
cotation
  6
ByBlock
 62
    0
370
   -2
100
AcDbLine
 10
-6.393285859484886
 20
3.552713678800501e-015
 11
-6.393285859484885
 21
20
  0
SOLID
  5
BF
100
AcDbEntity
  8
cotation
  6
ByBlock
 62
    0
370
   -2
100
AcDbTrace
 10
-6.393285859484886
 20
3.552713678800501e-015
 30
0
 11
-7.433997503916985
 21
6.250000000000004
 31
0
 12
-5.352574215052783
 22
6.250000000000004
 32
0
 13
-5.352574215052783
 23
6.250000000000004
 33
0
  0
SOLID
  5
C0
100
AcDbEntity
  8
cotation
  6
ByBlock
 62
    0
370
   -2
100
AcDbTrace
 10
-6.393285859484885
 20
20
 30
0
 11
-5.352574215052784
 21
13.75
 31
0
 12
-7.433997503916986
 22
13.75
 32
0
 13
-7.433997503916986
 23
13.75
 33
0
  0
MTEXT
  5
C1
100
AcDbEntity
  8
cotation
  6
CONTINUOUS
 62
    0
370
   -2
100
AcDbMText
 10
-11.08078585948489
 20
10
 30
0
 40
6.25
 41
7.638888888888888
 71
    5
 72
    1
  1
20
  7
standard
210
0
220
0
230
1
 50
90
 73
    2
 44
1
  0
LINE
  5
C2
100
AcDbEntity
  8
cotation
  6
ByBlock
 62
    0
370
   -2
100
AcDbLine
 10
10.93749999999999
 20
1.913447427847464e-016
 11
-9.518285859484886
 21
3.935403164369994e-015
  0
LINE
  5
C3
100
AcDbEntity
  8
cotation
  6
ByBlock
 62
    0
370
   -2
100
AcDbLine
 10
3.587500000000044
 20
20
 11
-9.518285859484884
 21
20
  0
ENDBLK
  5
78
330
76
100
AcDbEntity
  8
0
100
AcDbBlockEnd
  0
BLOCK
  5
7A
330
79
100
AcDbEntity
  8
0
100
AcDbBlockBegin
  2
*D13
 70
    1
 10
0
 20
0
  3
*D13
  1

  0
LINE
  5
C4
100
AcDbEntity
  8
cotation
  6
ByBlock
 62
    0
370
   -2
100
AcDbLine
 10
-40.77517671463245
 20
0
 11
-40.77517671463244
 21
190
  0
SOLID
  5
C5
100
AcDbEntity
  8
cotation
  6
ByBlock
 62
    0
370
   -2
100
AcDbTrace
 10
-40.77517671463245
 20
0
 30
0
 11
-41.81588835906455
 21
6.25
 31
0
 12
-39.73446507020035
 22
6.25
 32
0
 13
-39.73446507020035
 23
6.25
 33
0
  0
SOLID
  5
C6
100
AcDbEntity
  8
cotation
  6
ByBlock
 62
    0
370
   -2
100
AcDbTrace
 10
-40.77517671463244
 20
190
 30
0
 11
-39.73446507020034
 21
183.75
 31
0
 12
-41.81588835906454
 22
183.75
 32
0
 13
-41.81588835906454
 23
183.75
 33
0
  0
MTEXT
  5
C7
100
AcDbEntity
  8
cotation
  6
CONTINUOUS
 62
    0
370
   -2
100
AcDbMText
 10
-45.46267671463244
 20
95
 30
0
 40
6.25
 41
11.11111111111111
 71
    5
 72
    1
  1
190
  7
standard
210
0
220
0
230
1
 50
90
 73
    2
 44
1
  0
LINE
  5
C8
100
AcDbEntity
  8
cotation
  6
ByBlock
 62
    0
370
   -2
100
AcDbLine
 10
12.23749999999999
 20
1.913447427847464e-016
 11
-43.90017671463245
 21
3.826894855694929e-016
  0
LINE
  5
C9
100
AcDbEntity
  8
cotation
  6
ByBlock
 62
    0
370
   -2
100
AcDbLine
 10
79.83749999999995
 20
190
 11
-43.90017671463244
 21
190
  0
ENDBLK
  5
7B
330
79
100
AcDbEntity
  8
0
100
AcDbBlockEnd
  0
ENDSEC
  0
SECTION
  2
ENTITIES
  0
LINE
  5
CA
100
AcDbEntity
  8
traitdepliage
  6
ByLayer
 62
  256
370
   -1
100
AcDbLine
 10
13.8
 20
190
 11
13.79999999999999
 21
0
  0
LINE
  5
CB
100
AcDbEntity
  8
traitdepliage
  6
ByLayer
 62
  256
370
   -1
100
AcDbLine
 10
81.40000000000001
 20
190
 11
81.39999999999999
 21
0
  0
LINE
  5
CC
100
AcDbEntity
  8
traitdepliage
  6
ByLayer
 62
  256
370
   -1
100
AcDbLine
 10
283
 20
190
 11
283
 21
0
  0
LINE
  5
CD
100
AcDbEntity
  8
traitdepliage
  6
ByLayer
 62
  256
370
   -1
100
AcDbLine
 10
350.6
 20
190
 11
350.6
 21
0
  0
LINE
  5
CE
100
AcDbEntity
  8
arret de vue
  6
ByLayer
 62
  256
370
   -1
100
AcDbLine
 10
364.4
 20
160
 11
-0.03600000000000136
 21
160
  0
LINE
  5
CF
100
AcDbEntity
  8
arret de vue
  6
ByLayer
 62
  256
370
   -1
100
AcDbLine
 10
0
 20
12.5
 11
12.49999999999999
 21
-0
  0
LINE
  5
D0
100
AcDbEntity
  8
arret de vue
  6
ByLayer
 62
  256
370
   -1
100
AcDbLine
 10
351.9
 20
0
 11
364.4
 21
12.5
  0
LINE
  5
D1
100
AcDbEntity
  8
arret de vue
  6
ByLayer
 62
  256
370
   -1
100
AcDbLine
 10
13.8
 20
165.0859950859951
 11
81.40000000000001
 21
190
  0
LINE
  5
D2
100
AcDbEntity
  8
arret de vue
  6
ByLayer
 62
  256
370
   -1
100
AcDbLine
 10
13.8
 20
165.0859950859951
 11
11.4
 21
165.0859950859951
  0
LINE
  5
D3
100
AcDbEntity
  8
arret de vue
  6
CONTINUOUS
 62
    7
370
    0
100
AcDbLine
 10
0
 20
190
 11
0
 21
12.5
  0
LINE
  5
D4
100
AcDbEntity
  8
arret de vue
  6
ByLayer
 62
  256
370
   -1
100
AcDbLine
 10
4.440892098500626e-016
 20
12.5
 11
-0.03600000000000136
 21
12.5
  0
LINE
  5
D5
100
AcDbEntity
  8
arret de vue
  6
CONTINUOUS
 62
    7
370
   50
100
AcDbLine
 10
12.49999999999999
 20
0
 11
351.9
 21
0
  0
LINE
  5
D6
100
AcDbEntity
  8
arret de vue
  6
ByLayer
 62
  256
370
   -1
100
AcDbLine
 10
0
 20
160
 11
11.4
 21
165.0859950859951
  0
LINE
  5
D7
100
AcDbEntity
  8
arret de vue
  6
ByLayer
 62
  256
370
   -1
100
AcDbLine
 10
350.6
 20
165.0859950859951
 11
283
 21
190
  0
LINE
  5
D8
100
AcDbEntity
  8
arret de vue
  6
ByLayer
 62
  256
370
   -1
100
AcDbLine
 10
350.6
 20
165.0859950859951
 11
353
 21
165.0859950859951
  0
LINE
  5
D9
100
AcDbEntity
  8
arret de vue
  6
ByLayer
 62
  256
370
   -1
100
AcDbLine
 10
353
 20
165.0859950859951
 11
364.4
 21
160
  0
CIRCLE
  5
DA
100
AcDbEntity
  8
arret de vue
  6
ByLayer
 62
  256
370
   -1
100
AcDbCircle
 10
6.9
 20
20
 40
1.75
  0
CIRCLE
  5
DB
100
AcDbEntity
  8
arret de vue
  6
ByLayer
 62
  256
370
   -1
100
AcDbCircle
 10
6.9
 20
120
 40
1.75
  0
CIRCLE
  5
DC
100
AcDbEntity
  8
arret de vue
  6
ByLayer
 62
  256
370
   -1
100
AcDbCircle
 10
357.5
 20
20
 40
1.75
  0
CIRCLE
  5
DD
100
AcDbEntity
  8
arret de vue
  6
ByLayer
 62
  256
370
   -1
100
AcDbCircle
 10
357.5
 20
120
 40
1.75
  0
LINE
  5
DE
100
AcDbEntity
  8
traitdaxes
  6
ByLayer
 62
  256
370
   -1
100
AcDbLine
 10
364.4
 20
20
 11
0
 21
20
  0
LINE
  5
DF
100
AcDbEntity
  8
traitdaxes
  6
ByLayer
 62
  256
370
   -1
100
AcDbLine
 10
364.4
 20
120
 11
0
 21
120
  0
LINE
  5
E0
100
AcDbEntity
  8
traitdaxes
  6
ByLayer
 62
  256
370
   -1
100
AcDbLine
 10
357.5
 20
160
 11
357.5
 21
5.6
  0
LINE
  5
E1
100
AcDbEntity
  8
traitdaxes
  6
ByLayer
 62
  256
370
   -1
100
AcDbLine
 10
6.899999999999999
 20
160
 11
6.899999999999988
 21
5.600000000000006
  0
DIMENSION
  5
E2
100
AcDbEntity
  8
cotation
  6
ByLayer
 62
  256
370
   -1
100
AcDbDimension
  2
*D1
 10
12.49999999999999
 20
-10.4617404973389
 30
0
 11
6.249999999999997
 21
-5.7742404973389
 31
0
 70
   32
 71
    5
 72
    0
  3
Standard
 53
0
210
0
220
0
230
1
100
AcDbAlignedDimension
 13
4.440892098500626e-016
 23
12.5
 33
0
 14
12.49999999999999
 24
0
 34
0
100
AcDbRotatedDimension
  0
DIMENSION
  5
E3
100
AcDbEntity
  8
cotation
  6
ByLayer
 62
  256
370
   -1
100
AcDbDimension
  2
*D2
 10
13.79999999999999
 20
-23.05457628117275
 30
0
 11
6.899999999999994
 21
-18.36707628117275
 31
0
 70
   32
 71
    5
 72
    0
  3
Standard
 53
0
210
0
220
0
230
1
100
AcDbAlignedDimension
 13
0
 23
12.5
 33
0
 14
13.79999999999999
 24
0
 34
0
100
AcDbRotatedDimension
  0
DIMENSION
  5
E4
100
AcDbEntity
  8
cotation
  6
ByLayer
 62
  256
370
   -1
100
AcDbDimension
  2
*D3
 10
81.39999999999999
 20
-31.40680632433931
 30
0
 11
40.7
 21
-26.71930632433931
 31
0
 70
   32
 71
    5
 72
    0
  3
Standard
 53
0
210
0
220
0
230
1
100
AcDbAlignedDimension
 13
0
 23
12.5
 33
0
 14
81.39999999999999
 24
0
 34
0
100
AcDbRotatedDimension
  0
DIMENSION
  5
E5
100
AcDbEntity
  8
cotation
  6
ByLayer
 62
  256
370
   -1
100
AcDbDimension
  2
*D4
 10
283
 20
-42.73915912178133
 30
0
 11
141.5
 21
-38.05165912178133
 31
0
 70
   32
 71
    5
 72
    0
  3
Standard
 53
0
210
0
220
0
230
1
100
AcDbAlignedDimension
 13
0
 23
12.5
 33
0
 14
283
 24
0
 34
0
100
AcDbRotatedDimension
  0
DIMENSION
  5
E6
100
AcDbEntity
  8
cotation
  6
ByLayer
 62
  256
370
   -1
100
AcDbDimension
  2
*D5
 10
364.4
 20
-56.33798247871176
 30
0
 11
182.2
 21
-51.65048247871176
 31
0
 70
   32
 71
    5
 72
    0
  3
Standard
 53
0
210
0
220
0
230
1
100
AcDbAlignedDimension
 13
0
 23
12.5
 33
0
 14
364.4
 24
12.49999999999998
 34
0
100
AcDbRotatedDimension
  0
DIMENSION
  5
E7
100
AcDbEntity
  8
cotation
  6
ByLayer
 62
  256
370
   -1
100
AcDbDimension
  2
*D6
 10
-6.393285859484885
 20
20
 30
0
 11
-11.08078585948489
 21
10
 31
0
 70
   32
 71
    5
 72
    0
  3
Standard
 53
0
210
0
220
0
230
1
100
AcDbAlignedDimension
 13
12.49999999999999
 23
0
 33
0
 14
5.150000000000044
 24
20
 34
0
 50
90
100
AcDbRotatedDimension
  0
DIMENSION
  5
E8
100
AcDbEntity
  8
cotation
  6
ByLayer
 62
  256
370
   -1
100
AcDbDimension
  2
*D7
 10
-16.51655892075983
 20
120
 30
0
 11
-21.20405892075983
 21
60
 31
0
 70
   32
 71
    5
 72
    0
  3
Standard
 53
0
210
0
220
0
230
1
100
AcDbAlignedDimension
 13
12.49999999999999
 23
0
 33
0
 14
0
 24
120
 34
0
 50
90
100
AcDbRotatedDimension
  0
DIMENSION
  5
E9
100
AcDbEntity
  8
cotation
  6
ByLayer
 62
  256
370
   -1
100
AcDbDimension
  2
*D8
 10
-26.76821618192113
 20
160
 30
0
 11
-31.45571618192113
 21
80
 31
0
 70
   32
 71
    5
 72
    0
  3
Standard
 53
0
210
0
220
0
230
1
100
AcDbAlignedDimension
 13
12.49999999999999
 23
0
 33
0
 14
0
 24
160
 34
0
 50
90
100
AcDbRotatedDimension
  0
DIMENSION
  5
EA
100
AcDbEntity
  8
cotation
  6
ByLayer
 62
  256
370
   -1
100
AcDbDimension
  2
*D9
 10
11.40000000000001
 20
196.2630726452825
 30
0
 11
5.700000000000005
 21
200.9505726452825
 31
0
 70
   32
 71
    5
 72
    0
  3
Standard
 53
0
210
0
220
0
230
1
100
AcDbAlignedDimension
 13
0
 23
160
 33
0
 14
11.40000000000001
 24
165.0859950859951
 34
0
100
AcDbRotatedDimension
  0
DIMENSION
  5
EB
100
AcDbEntity
  8
cotation
  6
ByLayer
 62
  256
370
   -1
100
AcDbDimension
  2
*D10
 10
13.8
 20
206.8561347889095
 30
0
 11
6.9
 21
211.5436347889095
 31
0
 70
   32
 71
    5
 72
    0
  3
Standard
 53
0
210
0
220
0
230
1
100
AcDbAlignedDimension
 13
0
 23
160
 33
0
 14
13.8
 24
165.0859950859951
 34
0
100
AcDbRotatedDimension
  0
DIMENSION
  5
EC
100
AcDbEntity
  8
cotation
  6
ByLayer
 62
  256
370
   -1
100
AcDbDimension
  2
*D11
 10
350.6
 20
220.235999712559
 30
0
 11
175.3
 21
224.923499712559
 31
0
 70
   32
 71
    5
 72
    0
  3
Standard
 53
0
210
0
220
0
230
1
100
AcDbAlignedDimension
 13
1.503075537000618e-015
 23
190
 33
0
 14
350.6
 24
165.0859950859951
 34
0
100
AcDbRotatedDimension
  0
DIMENSION
  5
ED
100
AcDbEntity
  8
cotation
  6
ByLayer
 62
  256
370
   -1
100
AcDbDimension
  2
*D12
 10
353
 20
232.2960719276126
 30
0
 11
176.5
 21
236.9835719276126
 31
0
 70
   32
 71
    5
 72
    0
  3
Standard
 53
0
210
0
220
0
230
1
100
AcDbAlignedDimension
 13
0
 23
190
 33
0
 14
353
 24
165.0859950859951
 34
0
100
AcDbRotatedDimension
  0
LINE
  5
EE
100
AcDbEntity
  8
arret de vue
  6
ByLayer
 62
  256
370
   -1
100
AcDbLine
 10
217.09
 20
-95.3910969888023
 11
403.032
 21
-95.3910969888023
  0
LINE
  5
EF
100
AcDbEntity
  8
arret de vue
  6
ByLayer
 62
  256
370
   -1
100
AcDbLine
 10
128.838
 20
-95.3910969888023
 11
217.123
 21
-95.3910969888023
  0
LINE
  5
F0
100
AcDbEntity
  8
arret de vue
  6
ByLayer
 62
  256
370
   -1
100
AcDbLine
 10
403.8086080223861
 20
-146.3312261828527
 11
128.6571422446759
 21
-146.3312261828527
  0
LINE
  5
F1
100
AcDbEntity
  8
arret de vue
  6
ByLayer
 62
  256
370
   -1
100
AcDbLine
 10
128.6571422446759
 20
-146.3312261828527
 11
128.6571422446759
 21
-95.3910969888023
  0
LINE
  5
F2
100
AcDbEntity
  8
arret de vue
  6
ByLayer
 62
  256
370
   -1
100
AcDbLine
 10
403.8086080223861
 20
-95.3910969888023
 11
403.8086080223861
 21
-146.3312261828527
  0
LINE
  5
F3
100
AcDbEntity
  8
arret de vue
  6
ByLayer
 62
  256
370
   -1
100
AcDbLine
 10
217.09
 20
-95.3910969888023
 11
217.09
 21
-146.3312261828527
  0
MTEXT
  5
F4
100
AcDbEntity
  8
arret de vue
  6
ByLayer
 62
  256
370
   -1
100
AcDbMText
 10
228.2882814181429
 20
-105.8685090190605
 30
0
 40
4
 41
76.28572533333335
 71
    1
 72
    1
  1
Matière: aluminium 14/10
  7
romans
210
0
220
0
230
1
 50
0
 73
    2
 44
1
  0
MTEXT
  5
F5
100
AcDbEntity
  8
arret de vue
  6
ByLayer
 62
  256
370
   -1
100
AcDbMText
 10
150.6702657359743
 20
-106.2835786216389
 30
0
 40
4
 41
43.714296
 71
    1
 72
    1
  1
Cours : Dessin
  7
romans
210
0
220
0
230
1
 50
0
 73
    2
 44
1
  0
MTEXT
  5
F6
100
AcDbEntity
  8
arret de vue
  6
ByLayer
 62
  256
370
   -1
100
AcDbMText
 10
323.0752843288665
 20
-105.0967789048559
 30
0
 40
4
 41
76.76191511111112
 71
    1
 72
    1
  1
Nom : El Yazami Yassine
  7
romans
210
0
220
0
230
1
 50
0
 73
    2
 44
1
  0
MTEXT
  5
F7
100
AcDbEntity
  8
arret de vue
  6
ByLayer
 62
  256
370
   -1
100
AcDbMText
 10
342.4232957067535
 20
-132.4760402886581
 30
0
 40
4
 41
42.38095688888888
 71
    1
 72
    1
  1
Classe: 5 TQS
  7
romans
210
0
220
0
230
1
 50
0
 73
    2
 44
1
  0
MTEXT
  5
F8
100
AcDbEntity
  8
arret de vue
  6
ByLayer
 62
  256
370
   -1
100
AcDbMText
 10
150.0383523832364
 20
-131.7459266517568
 30
0
 40
4
 41
46.42857288888889
 71
    1
 72
    1
  1
Prof: Mr.Dulière
  7
romans
210
0
220
0
230
1
 50
0
 73
    2
 44
1
  0
MTEXT
  5
F9
100
AcDbEntity
  8
arret de vue
  6
ByLayer
 62
  256
370
   -1
100
AcDbMText
 10
226.539293658508
 20
-133.9518925654186
 30
0
 40
4
 41
73.57143688888888
 71
    1
 72
    1
  1
Date: 8 décembre 2022
  7
romans
210
0
220
0
230
1
 50
0
 73
    2
 44
1
  0
LINE
  5
FA
100
AcDbEntity
  8
arret de vue
  6
ByLayer
 62
  256
370
   -1
100
AcDbLine
 10
128.6571422446759
 20
-123.175
 11
403.8086080223861
 21
-123.175
  0
LINE
  5
FB
100
AcDbEntity
  8
arret de vue
  6
ByLayer
 62
  256
370
   -1
100
AcDbLine
 10
314.3277267046901
 20
-146.3312261828527
 11
314.3277267046901
 21
-95.3910969888023
  0
LWPOLYLINE
  5
FC
100
AcDbEntity
  8
arret de vue
  6
ByLayer
 62
  256
370
   -1
100
AcDbPolyline
 90
    4
 70
    1
 43
0
 10
-77.94735281528973
 20
260.8850175858677
 10
403.8086080223861
 20
260.8850175858677
 10
403.8086080223861
 20
-146.3312261828527
 10
-77.94735281528973
 20
-146.3312261828527
  0
LINE
  5
FD
100
AcDbEntity
  8
arret de vue
  6
CONTINUOUS
 62
    7
370
    0
100
AcDbLine
 10
283
 20
190
 11
81.40000000000001
 21
190
  0
LINE
  5
FE
100
AcDbEntity
  8
arret de vue
  6
CONTINUOUS
 62
    7
370
    0
100
AcDbLine
 10
364.4
 20
12.49999999999998
 11
364.4
 21
160
  0
DIMENSION
  5
FF
100
AcDbEntity
  8
cotation
  6
ByLayer
 62
  256
370
   -1
100
AcDbDimension
  2
*D13
 10
-40.77517671463244
 20
190
 30
0
 11
-45.46267671463244
 21
95
 31
0
 70
   32
 71
    5
  3
Standard
 53
0
210
0
220
0
230
1
100
AcDbAlignedDimension
 13
13.79999999999999
 23
0
 33
0
 14
81.39999999999995
 24
190
 34
0
 50
90
100
AcDbRotatedDimension
  0
ENDSEC
  0
SECTION
  2
OBJECTS
  0
DICTIONARY
  5
C
330
0
100
AcDbDictionary
281
    1
  3
ACAD_GROUP
350
D
  0
DICTIONARY
  5
D
330
C
100
AcDbDictionary
281
    1
  0
ENDSEC
  0
EOF
